<svg xmlns="http://www.w3.org/2000/svg" viewBox="0 0 512 512" width="512" height="512">
  <rect width="512" height="512" rx="96" fill="#0F172A"/>
  <g transform="translate(256,240)">
    <!-- House body -->
    <rect x="-100" y="-20" width="200" height="140" rx="12" fill="#1E293B" stroke="#F59E0B" stroke-width="8"/>
    <!-- Roof -->
    <polygon points="-130,0 0,-100 130,0" fill="#1E293B" stroke="#F59E0B" stroke-width="8" stroke-linejoin="round"/>
    <!-- Door -->
    <rect x="-25" y="50" width="50" height="70" rx="6" fill="#F59E0B"/>
    <!-- Windows -->
    <rect x="-80" y="20" width="40" height="35" rx="4" fill="#38BDF8" opacity="0.8"/>
    <rect x="40" y="20" width="40" height="35" rx="4" fill="#38BDF8" opacity="0.8"/>
    <!-- Heart -->
    <g transform="translate(0,-55) scale(0.6)">
      <path d="M0,30 C0,30 -50,-20 -50,-45 C-50,-70 -25,-80 0,-55 C25,-80 50,-70 50,-45 C50,-20 0,30 0,30Z" fill="#F59E0B"/>
    </g>
  </g>
</svg>
